<svg xmlns="http://www.w3.org/2000/svg" version="1.1" xmlns:xlink="http://www.w3.org/1999/xlink" xmlns:svgjs="http://svgjs.dev/svgjs" width="1440" height="560" preserveAspectRatio="none" viewBox="0 0 1440 560"><g mask="url(&quot;#SvgjsMask1015&quot;)" fill="none"><rect width="1440" height="560" x="0" y="0" fill="rgba(36, 35, 51, 1)"></rect><path d="M0,384.923C70.885,384.594,124.249,324.009,180.54,280.926C232.414,241.223,282.179,200.338,314.981,143.847C350.287,83.044,386.571,15.434,374.968,-53.912C363.427,-122.887,308.355,-176.061,254.075,-220.157C205.82,-259.358,141.746,-264.082,84.999,-289.479C16.853,-319.978,-39.952,-400.438,-112.864,-384.379C-184.868,-368.52,-203.597,-273.864,-249.142,-215.883C-292.012,-161.308,-367.5,-122.79,-372.708,-53.587C-377.919,15.656,-309.149,65.145,-274.837,125.514C-244.127,179.545,-226.818,239.951,-181.622,282.61C-130.046,331.291,-70.921,385.253,0,384.923" fill="#171721"></path><path d="M1440 1123.743C1545.245 1115.175 1638.469 1064.116 1728.074 1008.252 1818.796 951.691 1922.312 897.654 1961.9189999999999 798.352 2001.0810000000001 700.164 1955.292 592.587 1935.26 488.79200000000003 1916.218 390.124 1918.724 277.82 1847.734 206.697 1777.625 136.45600000000002 1662.9859999999999 152.64600000000002 1568.733 121.57499999999999 1470.276 89.118 1384.636 10.039999999999964 1281.448 20.019999999999982 1171.685 30.635999999999967 1073.306 96.46499999999997 997.76 176.79700000000003 920.373 259.087 849.086 362.709 853.007 475.603 856.815 585.256 972.009 653.105 1017.7660000000001 752.828 1063.402 852.287 1037.904 985.527 1120.117 1057.747 1203.603 1131.086 1329.242 1132.76 1440 1123.743" fill="#312f45"></path></g><defs><mask id="SvgjsMask1015"><rect width="1440" height="560" fill="#ffffff"></rect></mask></defs></svg>