<svg xmlns="http://www.w3.org/2000/svg" version="1.1" xmlns:xlink="http://www.w3.org/1999/xlink" xmlns:svgjs="http://svgjs.dev/svgjs" width="1440" height="560" preserveAspectRatio="none" viewBox="0 0 1440 560"><g mask="url(&quot;#SvgjsMask1113&quot;)" fill="none"><rect width="1440" height="560" x="0" y="0" fill="rgba(249, 249, 249, 1)"></rect><path d="M0,676.939C129.076,668.172,157.843,480.883,252.08,392.245C323.583,324.991,431.083,303.623,484.475,221.252C541.926,132.619,568.416,24.864,558.367,-80.281C548.06,-188.133,493.117,-284.262,427.896,-370.774C359.003,-462.157,285.806,-568.914,173.479,-590.815C62.184,-612.515,-35.237,-521.449,-141.465,-481.786C-238.669,-445.492,-341.961,-430.81,-424.268,-367.631C-519.802,-294.299,-625.934,-211.573,-647.781,-93.137C-669.758,26.004,-607.819,146.851,-537.35,245.399C-474.103,333.846,-359.869,359.964,-275.09,428.049C-176.682,507.08,-125.924,685.491,0,676.939" fill="#ededed"></path><path d="M1440 952.869C1525.398 950.54 1611.996 982.989 1691.091 950.7049999999999 1777.274 915.528 1871.81 857.7909999999999 1894.26 767.453 1916.873 676.456 1817.065 600.477 1801.085 508.084 1785.813 419.788 1858.992 315.35400000000004 1803.849 244.723 1749.258 174.79899999999998 1634.48 212.50099999999998 1549.765 186.175 1463.133 159.253 1390.997 73.23200000000003 1301.597 88.64299999999997 1211.606 104.156 1155.635 192.84500000000003 1098.38 263.985 1042.932 332.88 984.358 405.243 975.9390000000001 493.278 967.669 579.756 1018.671 656.9300000000001 1053.1770000000001 736.656 1088.43 818.108 1102.478 921.3430000000001 1179.95 964.646 1257.259 1007.857 1351.467 955.284 1440 952.869" fill="#ffffff"></path></g><defs><mask id="SvgjsMask1113"><rect width="1440" height="560" fill="#ffffff"></rect></mask></defs></svg>