<svg width="80" height="80" viewBox="0 0 80 80" fill="none" xmlns="http://www.w3.org/2000/svg">
  <path d="M39 16.0007C39 15.2824 39.1201 14.6137 39.3369 14.0043L24.0004 14.0026C21.7911 14.0024 20 15.7933 20 18.0026L20 62.0022C20 64.2113 21.7909 66.0022 24 66.0022H56C58.2091 66.0022 60 64.2113 60 62.0022V34.6625C59.3897 34.8801 58.7197 35.0007 58 35.0007H48C43.0294 35.0007 39 30.9713 39 26.0007V16.0007Z" fill="#000000" />
  <path d="M45.4142 15.4142L58.5858 28.5858C59.1077 29.1077 58.738 30 58 30H48C45.7909 30 44 28.2091 44 26V16C44 15.262 44.8923 14.8924 45.4142 15.4142Z" fill="#000000" />
</svg>
