<svg width="80" height="80" viewBox="0 0 80 80" fill="none" xmlns="http://www.w3.org/2000/svg">
  <path fill-rule="evenodd" clip-rule="evenodd" d="M48.9279 36.9999L55.0263 36.9999C58.6794 36.9999 60.509 32.5831 57.9258 29.9999L40.6381 12.7122C38.5878 10.662 35.2637 10.662 33.2135 12.7122L15.9258 29.9999C13.3426 32.5831 15.1721 36.9999 18.8253 36.9999L24.9256 36.9999C24.9569 40.468 25.515 43.9325 26.6 47.2718C28.8343 54.1483 33.1882 60.1409 39.0377 64.3908C44.8872 68.6407 51.9319 70.9297 59.1623 70.9297C61.4829 70.9297 63.7844 70.6939 66.0334 70.2331C67.8451 69.862 67.9353 67.4116 66.3252 66.5021C65.195 65.8636 64.0979 65.1591 63.04 64.3905C57.1905 60.1406 52.8366 54.1479 50.6023 47.2715C49.5173 43.9323 48.9592 40.4679 48.9279 36.9999Z" fill="#000000" />
  <path d="M48.9279 36.9999L48.9279 35.4999C48.5278 35.4999 48.1442 35.6598 47.8625 35.9441C47.5808 36.2283 47.4244 36.6133 47.428 37.0134L48.9279 36.9999ZM57.9258 29.9999L58.9864 28.9393L58.9864 28.9393L57.9258 29.9999ZM40.6381 12.7122L41.6988 11.6516L40.6381 12.7122ZM33.2135 12.7122L32.1528 11.6516L33.2135 12.7122ZM15.9258 29.9999L14.8651 28.9393L14.8651 28.9393L15.9258 29.9999ZM18.8253 36.9999L18.8253 35.4999L18.8253 35.4999L18.8253 36.9999ZM24.9256 36.9999L26.4256 36.9864C26.4182 36.1633 25.7488 35.4999 24.9256 35.4999L24.9256 36.9999ZM26.6 47.2718L25.1734 47.7353L26.6 47.2718ZM39.0377 64.3908L39.9194 63.1773L39.0377 64.3908ZM66.0334 70.2331L65.7324 68.7637V68.7637L66.0334 70.2331ZM66.3252 66.5021L67.0629 65.196L67.0629 65.196L66.3252 66.5021ZM63.04 64.3905L63.9216 63.177L63.9216 63.177L63.04 64.3905ZM50.6023 47.2715L49.1757 47.735L50.6023 47.2715ZM55.0263 35.4999L48.9279 35.4999L48.9279 38.4999L55.0263 38.4999L55.0263 35.4999ZM56.8651 31.0606C58.5033 32.6988 57.3431 35.4999 55.0263 35.4999L55.0263 38.4999C60.0158 38.4999 62.5146 32.4674 58.9864 28.9393L56.8651 31.0606ZM39.5774 13.7729L56.8651 31.0606L58.9864 28.9393L41.6988 11.6516L39.5774 13.7729ZM34.2741 13.7729C35.7386 12.3084 38.113 12.3084 39.5774 13.7729L41.6988 11.6516C39.0627 9.01553 34.7889 9.01553 32.1528 11.6516L34.2741 13.7729ZM16.9864 31.0606L34.2741 13.7729L32.1528 11.6516L14.8651 28.9393L16.9864 31.0606ZM18.8253 35.4999C16.5085 35.4999 15.3482 32.6988 16.9864 31.0606L14.8651 28.9393C11.337 32.4674 13.8358 38.4999 18.8253 38.4999L18.8253 35.4999ZM24.9256 35.4999L18.8253 35.4999L18.8253 38.4999L24.9256 38.4999L24.9256 35.4999ZM23.4257 37.0134C23.4583 40.6334 24.0409 44.2497 25.1734 47.7353L28.0266 46.8083C26.9891 43.6152 26.4554 40.3026 26.4256 36.9864L23.4257 37.0134ZM25.1734 47.7353C27.5056 54.9131 32.0502 61.1682 38.156 65.6043L39.9194 63.1773C34.3261 59.1136 30.163 53.3835 28.0266 46.8083L25.1734 47.7353ZM38.156 65.6043C44.2618 70.0404 51.6152 72.4297 59.1623 72.4297L59.1623 69.4297C52.2487 69.4297 45.5126 67.241 39.9194 63.1773L38.156 65.6043ZM59.1623 72.4297C61.5846 72.4297 63.9869 72.1836 66.3345 71.7026L65.7324 68.7637C63.5819 69.2042 61.3813 69.4297 59.1623 69.4297L59.1623 72.4297ZM66.3345 71.7026C67.996 71.3622 68.8761 70.0131 68.9596 68.662C69.0403 67.3555 68.4013 65.952 67.0629 65.196L65.5874 67.8081C65.8592 67.9616 65.9801 68.2381 65.9653 68.477C65.9584 68.5893 65.9232 68.6536 65.9007 68.6817C65.8875 68.698 65.8527 68.739 65.7324 68.7637L66.3345 71.7026ZM67.0629 65.196C65.9823 64.5856 64.9333 63.9119 63.9216 63.177L62.1583 65.604C63.2626 66.4063 64.4077 67.1417 65.5874 67.8081L67.0629 65.196ZM63.9216 63.177C58.3284 59.1132 54.1653 53.3832 52.0288 46.8079L49.1757 47.735C51.5079 54.9127 56.0525 61.1679 62.1583 65.604L63.9216 63.177ZM52.0288 46.8079C50.9914 43.615 50.4577 40.3025 50.4279 36.9864L47.428 37.0134C47.4606 40.6333 48.0432 44.2495 49.1757 47.735L52.0288 46.8079Z" fill="#000000" />
</svg>
